<svg id="visual" viewBox="0 0 3580 1620" width="3580" height="1620" xmlns="http://www.w3.org/2000/svg" xmlns:xlink="http://www.w3.org/1999/xlink" version="1.1"><rect x="0" y="0" width="3580" height="1620" fill="#000000"></rect><path d="M0 1484L66.3 1460.2C132.7 1436.3 265.3 1388.7 398 1380.5C530.7 1372.3 663.3 1403.7 795.8 1420.8C928.3 1438 1060.7 1441 1193.2 1438.7C1325.7 1436.3 1458.3 1428.7 1591 1414.8C1723.7 1401 1856.3 1381 1989 1369.7C2121.7 1358.3 2254.3 1355.7 2386.8 1374.3C2519.3 1393 2651.7 1433 2784.2 1438.8C2916.7 1444.7 3049.3 1416.3 3182 1420C3314.7 1423.7 3447.3 1459.3 3513.7 1477.2L3580 1495L3580 1621L3513.7 1621C3447.3 1621 3314.7 1621 3182 1621C3049.3 1621 2916.7 1621 2784.2 1621C2651.7 1621 2519.3 1621 2386.8 1621C2254.3 1621 2121.7 1621 1989 1621C1856.3 1621 1723.7 1621 1591 1621C1458.3 1621 1325.7 1621 1193.2 1621C1060.7 1621 928.3 1621 795.8 1621C663.3 1621 530.7 1621 398 1621C265.3 1621 132.7 1621 66.3 1621L0 1621Z" fill="#14a943"></path><path d="M0 1472L66.3 1479.8C132.7 1487.7 265.3 1503.3 398 1493.7C530.7 1484 663.3 1449 795.8 1431C928.3 1413 1060.7 1412 1193.2 1425.2C1325.7 1438.3 1458.3 1465.7 1591 1477.3C1723.7 1489 1856.3 1485 1989 1474.8C2121.7 1464.7 2254.3 1448.3 2386.8 1449.7C2519.3 1451 2651.7 1470 2784.2 1470C2916.7 1470 3049.3 1451 3182 1445.5C3314.7 1440 3447.3 1448 3513.7 1452L3580 1456L3580 1621L3513.7 1621C3447.3 1621 3314.7 1621 3182 1621C3049.3 1621 2916.7 1621 2784.2 1621C2651.7 1621 2519.3 1621 2386.8 1621C2254.3 1621 2121.7 1621 1989 1621C1856.3 1621 1723.7 1621 1591 1621C1458.3 1621 1325.7 1621 1193.2 1621C1060.7 1621 928.3 1621 795.8 1621C663.3 1621 530.7 1621 398 1621C265.3 1621 132.7 1621 66.3 1621L0 1621Z" fill="#0a6223"></path><path d="M0 1558L66.3 1560.8C132.7 1563.7 265.3 1569.3 398 1562.5C530.7 1555.7 663.3 1536.3 795.8 1537.2C928.3 1538 1060.7 1559 1193.2 1553.7C1325.7 1548.3 1458.3 1516.7 1591 1503C1723.7 1489.3 1856.3 1493.7 1989 1504.2C2121.7 1514.7 2254.3 1531.3 2386.8 1535C2519.3 1538.7 2651.7 1529.3 2784.2 1526C2916.7 1522.7 3049.3 1525.3 3182 1530.5C3314.7 1535.7 3447.3 1543.3 3513.7 1547.2L3580 1551L3580 1621L3513.7 1621C3447.3 1621 3314.7 1621 3182 1621C3049.3 1621 2916.7 1621 2784.2 1621C2651.7 1621 2519.3 1621 2386.8 1621C2254.3 1621 2121.7 1621 1989 1621C1856.3 1621 1723.7 1621 1591 1621C1458.3 1621 1325.7 1621 1193.2 1621C1060.7 1621 928.3 1621 795.8 1621C663.3 1621 530.7 1621 398 1621C265.3 1621 132.7 1621 66.3 1621L0 1621Z" fill="#032302"></path></svg>