<svg id="visual" viewBox="0 0 3580 1620" width="3580" height="1620" xmlns="http://www.w3.org/2000/svg" xmlns:xlink="http://www.w3.org/1999/xlink" version="1.1"><rect width="3580" height="1620" fill="#001829"></rect><g><g transform="translate(1992 527)"><path d="M0 -424.4L367.5 -212.2L367.5 212.2L0 424.4L-367.5 212.2L-367.5 -212.2Z" fill="none" stroke="#14A943" stroke-width="2"></path></g><g transform="translate(675 67)"><path d="M0 -222L192.3 -111L192.3 111L0 222L-192.3 111L-192.3 -111Z" fill="none" stroke="#14A943" stroke-width="2"></path></g><g transform="translate(1254 976)"><path d="M0 -246L213 -123L213 123L0 246L-213 123L-213 -123Z" fill="none" stroke="#14A943" stroke-width="2"></path></g><g transform="translate(3541 578)"><path d="M0 -370L320.4 -185L320.4 185L0 370L-320.4 185L-320.4 -185Z" stroke="#14A943" fill="none" stroke-width="2"></path></g><g transform="translate(2775 1095)"><path d="M0 -263L227.8 -131.5L227.8 131.5L0 263L-227.8 131.5L-227.8 -131.5Z" stroke="#14A943" fill="none" stroke-width="2"></path></g><g transform="translate(252 1330)"><path d="M0 -417L361.1 -208.5L361.1 208.5L0 417L-361.1 208.5L-361.1 -208.5Z" stroke="#14A943" fill="none" stroke-width="2"></path></g><g transform="translate(1864 1577)"><path d="M0 -218L188.8 -109L188.8 109L0 218L-188.8 109L-188.8 -109Z" stroke="#14A943" fill="none" stroke-width="2"></path></g></g></svg>