<svg id="visual" viewBox="0 0 3580 1620" width="3580" height="1620" xmlns="http://www.w3.org/2000/svg" xmlns:xlink="http://www.w3.org/1999/xlink" version="1.1"><rect x="0" y="0" width="3580" height="1620" fill="#002233"></rect><path d="M0 1381L45.8 1382.8C91.7 1384.7 183.3 1388.3 275.2 1408.2C367 1428 459 1464 550.8 1473C642.7 1482 734.3 1464 826.2 1435C918 1406 1010 1366 1101.8 1388.2C1193.7 1410.3 1285.3 1494.7 1377 1505.8C1468.7 1517 1560.3 1455 1652.2 1418C1744 1381 1836 1369 1927.8 1361.7C2019.7 1354.3 2111.3 1351.7 2203 1387.3C2294.7 1423 2386.3 1497 2478.2 1507C2570 1517 2662 1463 2753.8 1457.8C2845.7 1452.7 2937.3 1496.3 3029.2 1498.8C3121 1501.3 3213 1462.7 3304.8 1446C3396.7 1429.3 3488.3 1434.7 3534.2 1437.3L3580 1440L3580 1621L3534.2 1621C3488.3 1621 3396.7 1621 3304.8 1621C3213 1621 3121 1621 3029.2 1621C2937.3 1621 2845.7 1621 2753.8 1621C2662 1621 2570 1621 2478.2 1621C2386.3 1621 2294.7 1621 2203 1621C2111.3 1621 2019.7 1621 1927.8 1621C1836 1621 1744 1621 1652.2 1621C1560.3 1621 1468.7 1621 1377 1621C1285.3 1621 1193.7 1621 1101.8 1621C1010 1621 918 1621 826.2 1621C734.3 1621 642.7 1621 550.8 1621C459 1621 367 1621 275.2 1621C183.3 1621 91.7 1621 45.8 1621L0 1621Z" fill="#14A943" stroke-linecap="round" stroke-linejoin="miter"></path></svg>