<svg id="visual" viewBox="0 0 3580 1620" width="3580" height="1620" xmlns="http://www.w3.org/2000/svg" xmlns:xlink="http://www.w3.org/1999/xlink" version="1.1"><rect x="0" y="0" width="3580" height="1620" fill="#02223b"></rect><path d="M0 1239L85.2 1253.8C170.3 1268.7 340.7 1298.3 511.2 1304.3C681.7 1310.3 852.3 1292.7 1022.8 1292C1193.3 1291.3 1363.7 1307.7 1534.2 1327.3C1704.7 1347 1875.3 1370 2045.8 1378.3C2216.3 1386.7 2386.7 1380.3 2557.2 1358.7C2727.7 1337 2898.3 1300 3068.8 1293.2C3239.3 1286.3 3409.7 1309.7 3494.8 1321.3L3580 1333L3580 1621L3494.8 1621C3409.7 1621 3239.3 1621 3068.8 1621C2898.3 1621 2727.7 1621 2557.2 1621C2386.7 1621 2216.3 1621 2045.8 1621C1875.3 1621 1704.7 1621 1534.2 1621C1363.7 1621 1193.3 1621 1022.8 1621C852.3 1621 681.7 1621 511.2 1621C340.7 1621 170.3 1621 85.2 1621L0 1621Z" fill="#009473"></path><path d="M0 1442L85.2 1425.8C170.3 1409.7 340.7 1377.3 511.2 1365.8C681.7 1354.3 852.3 1363.7 1022.8 1370.5C1193.3 1377.3 1363.7 1381.7 1534.2 1381.8C1704.7 1382 1875.3 1378 2045.8 1388C2216.3 1398 2386.7 1422 2557.2 1431.2C2727.7 1440.3 2898.3 1434.7 3068.8 1417.2C3239.3 1399.7 3409.7 1370.3 3494.8 1355.7L3580 1341L3580 1621L3494.8 1621C3409.7 1621 3239.3 1621 3068.8 1621C2898.3 1621 2727.7 1621 2557.2 1621C2386.7 1621 2216.3 1621 2045.8 1621C1875.3 1621 1704.7 1621 1534.2 1621C1363.7 1621 1193.3 1621 1022.8 1621C852.3 1621 681.7 1621 511.2 1621C340.7 1621 170.3 1621 85.2 1621L0 1621Z" fill="#005b79"></path><path d="M0 1458L85.2 1458.3C170.3 1458.7 340.7 1459.3 511.2 1475.2C681.7 1491 852.3 1522 1022.8 1531.3C1193.3 1540.7 1363.7 1528.3 1534.2 1517.5C1704.7 1506.7 1875.3 1497.3 2045.8 1500.7C2216.3 1504 2386.7 1520 2557.2 1529.5C2727.7 1539 2898.3 1542 3068.8 1542.2C3239.3 1542.3 3409.7 1539.7 3494.8 1538.3L3580 1537L3580 1621L3494.8 1621C3409.7 1621 3239.3 1621 3068.8 1621C2898.3 1621 2727.7 1621 2557.2 1621C2386.7 1621 2216.3 1621 2045.8 1621C1875.3 1621 1704.7 1621 1534.2 1621C1363.7 1621 1193.3 1621 1022.8 1621C852.3 1621 681.7 1621 511.2 1621C340.7 1621 170.3 1621 85.2 1621L0 1621Z" fill="#021f49"></path></svg>