<svg id="visual" viewBox="0 0 3580 1620" width="3580" height="1620" xmlns="http://www.w3.org/2000/svg" xmlns:xlink="http://www.w3.org/1999/xlink" version="1.1"><g stroke-width="1" stroke-linejoin="bevel"><path d="M1689.3 757L1621.3 573L1434.9 805Z" fill="#00696a" stroke="#00696a"></path><path d="M1621.3 573L1411.9 605L1434.9 805Z" fill="#00696a" stroke="#00696a"></path><path d="M1157.5 852L1441.9 1046L1434.9 805Z" fill="#00101c" stroke="#00101c"></path><path d="M1434.9 805L1641.3 1071L1689.3 757Z" fill="#009652" stroke="#009652"></path><path d="M1641.3 1071L1883.7 878L1689.3 757Z" fill="#023a48" stroke="#023a48"></path><path d="M1689.3 757L1949.7 525L1621.3 573Z" fill="#052c3a" stroke="#052c3a"></path><path d="M1441.9 1046L1641.3 1071L1434.9 805Z" fill="#008862" stroke="#008862"></path><path d="M1411.9 605L1157.5 852L1434.9 805Z" fill="#005961" stroke="#005961"></path><path d="M1883.7 878L1949.7 525L1689.3 757Z" fill="#052c3a" stroke="#052c3a"></path><path d="M1949.7 525L1654.3 229L1621.3 573Z" fill="#005961" stroke="#005961"></path><path d="M1621.3 573L1412.9 200L1411.9 605Z" fill="#061e2b" stroke="#061e2b"></path><path d="M1411.9 605L1096.5 499L1157.5 852Z" fill="#004955" stroke="#004955"></path><path d="M1412.9 200L1096.5 499L1411.9 605Z" fill="#00696a" stroke="#00696a"></path><path d="M1654.3 229L1412.9 200L1621.3 573Z" fill="#07a339" stroke="#07a339"></path><path d="M1641.3 1071L1944.7 1048L1883.7 878Z" fill="#023a48" stroke="#023a48"></path><path d="M1883.7 878L2167.1 769L1949.7 525Z" fill="#061e2b" stroke="#061e2b"></path><path d="M1157.5 852L1108.5 1024L1441.9 1046Z" fill="#07a339" stroke="#07a339"></path><path d="M1441.9 1046L1588.3 1379L1641.3 1071Z" fill="#004955" stroke="#004955"></path><path d="M781.2 858L1108.5 1024L1157.5 852Z" fill="#07a339" stroke="#07a339"></path><path d="M1412.9 200L1084.5 318L1096.5 499Z" fill="#023a48" stroke="#023a48"></path><path d="M1096.5 499L814.2 609L1157.5 852Z" fill="#008862" stroke="#008862"></path><path d="M2150.1 1046L2167.1 769L1883.7 878Z" fill="#00101c" stroke="#00101c"></path><path d="M2178.1 318L1959.7 205L1949.7 525Z" fill="#052c3a" stroke="#052c3a"></path><path d="M1949.7 525L1959.7 205L1654.3 229Z" fill="#005961" stroke="#005961"></path><path d="M1654.3 229L1617.3 0L1412.9 200Z" fill="#052c3a" stroke="#052c3a"></path><path d="M1366.9 1410L1588.3 1379L1441.9 1046Z" fill="#061e2b" stroke="#061e2b"></path><path d="M1641.3 1071L1890.7 1346L1944.7 1048Z" fill="#004955" stroke="#004955"></path><path d="M1944.7 1048L2150.1 1046L1883.7 878Z" fill="#023a48" stroke="#023a48"></path><path d="M1890.7 1346L2150.1 1046L1944.7 1048Z" fill="#061e2b" stroke="#061e2b"></path><path d="M2406.5 490L2247.1 598L2541.5 806Z" fill="#009652" stroke="#009652"></path><path d="M2167.1 769L2247.1 598L1949.7 525Z" fill="#07a339" stroke="#07a339"></path><path d="M1959.7 205L1617.3 0L1654.3 229Z" fill="#00696a" stroke="#00696a"></path><path d="M1412.9 200L1137.5 0L1084.5 318Z" fill="#07a339" stroke="#07a339"></path><path d="M1617.3 0L1437.9 0L1412.9 200Z" fill="#008862" stroke="#008862"></path><path d="M1588.3 1379L1890.7 1346L1641.3 1071Z" fill="#009652" stroke="#009652"></path><path d="M1088.5 1328L1366.9 1410L1441.9 1046Z" fill="#052c3a" stroke="#052c3a"></path><path d="M1588.3 1379L1644.3 1620L1890.7 1346Z" fill="#005961" stroke="#005961"></path><path d="M2247.1 598L2178.1 318L1949.7 525Z" fill="#00796a" stroke="#00796a"></path><path d="M1959.7 205L1991.7 0L1617.3 0Z" fill="#00101c" stroke="#00101c"></path><path d="M814.2 261L814.2 609L1096.5 499Z" fill="#00796a" stroke="#00796a"></path><path d="M1108.5 1024L1088.5 1328L1441.9 1046Z" fill="#052c3a" stroke="#052c3a"></path><path d="M849.2 1064L1088.5 1328L1108.5 1024Z" fill="#061e2b" stroke="#061e2b"></path><path d="M814.2 609L781.2 858L1157.5 852Z" fill="#004955" stroke="#004955"></path><path d="M781.2 858L849.2 1064L1108.5 1024Z" fill="#009652" stroke="#009652"></path><path d="M1437.9 0L1137.5 0L1412.9 200Z" fill="#004955" stroke="#004955"></path><path d="M1084.5 318L814.2 261L1096.5 499Z" fill="#00696a" stroke="#00696a"></path><path d="M2241.1 0L1991.7 0L1959.7 205Z" fill="#023a48" stroke="#023a48"></path><path d="M895.2 0L814.2 261L1084.5 318Z" fill="#005961" stroke="#005961"></path><path d="M814.2 609L603.8 835L781.2 858Z" fill="#07a339" stroke="#07a339"></path><path d="M2247.1 598L2406.5 490L2178.1 318Z" fill="#005961" stroke="#005961"></path><path d="M2178.1 318L2241.1 0L1959.7 205Z" fill="#004955" stroke="#004955"></path><path d="M2541.5 806L2247.1 598L2167.1 769Z" fill="#008862" stroke="#008862"></path><path d="M1393.9 1620L1588.3 1379L1366.9 1410Z" fill="#07a339" stroke="#07a339"></path><path d="M1393.9 1620L1644.3 1620L1588.3 1379Z" fill="#00696a" stroke="#00696a"></path><path d="M1137.5 1620L1393.9 1620L1366.9 1410Z" fill="#00101c" stroke="#00101c"></path><path d="M487.8 580L603.8 835L814.2 609Z" fill="#008862" stroke="#008862"></path><path d="M781.2 858L603.8 835L849.2 1064Z" fill="#008862" stroke="#008862"></path><path d="M781.2 1420L1137.5 1620L1088.5 1328Z" fill="#052c3a" stroke="#052c3a"></path><path d="M2276.1 1407L2412.5 1109L2150.1 1046Z" fill="#061e2b" stroke="#061e2b"></path><path d="M2150.1 1046L2412.5 1109L2167.1 769Z" fill="#061e2b" stroke="#061e2b"></path><path d="M2276.1 1407L2150.1 1046L1890.7 1346Z" fill="#008862" stroke="#008862"></path><path d="M1137.5 0L895.2 0L1084.5 318Z" fill="#052c3a" stroke="#052c3a"></path><path d="M537.8 332L487.8 580L814.2 609Z" fill="#00796a" stroke="#00796a"></path><path d="M1644.3 1620L1901.7 1620L1890.7 1346Z" fill="#008862" stroke="#008862"></path><path d="M2516.5 332L2241.1 0L2178.1 318Z" fill="#005961" stroke="#005961"></path><path d="M2412.5 1109L2541.5 806L2167.1 769Z" fill="#023a48" stroke="#023a48"></path><path d="M2406.5 490L2516.5 332L2178.1 318Z" fill="#061e2b" stroke="#061e2b"></path><path d="M781.2 1420L1088.5 1328L849.2 1064Z" fill="#061e2b" stroke="#061e2b"></path><path d="M1088.5 1328L1137.5 1620L1366.9 1410Z" fill="#00796a" stroke="#00796a"></path><path d="M2232.1 1620L2276.1 1407L1890.7 1346Z" fill="#004955" stroke="#004955"></path><path d="M2775.8 609L2516.5 332L2406.5 490Z" fill="#00101c" stroke="#00101c"></path><path d="M477.8 1071L781.2 1420L849.2 1064Z" fill="#061e2b" stroke="#061e2b"></path><path d="M537.8 332L814.2 609L814.2 261Z" fill="#023a48" stroke="#023a48"></path><path d="M603.8 835L477.8 1071L849.2 1064Z" fill="#00696a" stroke="#00696a"></path><path d="M543.8 0L537.8 332L814.2 261Z" fill="#052c3a" stroke="#052c3a"></path><path d="M308.4 1017L477.8 1071L603.8 835Z" fill="#052c3a" stroke="#052c3a"></path><path d="M1901.7 1620L2232.1 1620L1890.7 1346Z" fill="#00101c" stroke="#00101c"></path><path d="M2276.1 1407L2513.5 1351L2412.5 1109Z" fill="#005961" stroke="#005961"></path><path d="M2760.8 1078L2735.8 760L2541.5 806Z" fill="#023a48" stroke="#023a48"></path><path d="M2516.5 332L2471.5 0L2241.1 0Z" fill="#009652" stroke="#009652"></path><path d="M2415.5 1620L2513.5 1351L2276.1 1407Z" fill="#061e2b" stroke="#061e2b"></path><path d="M585.8 1620L789.2 1620L781.2 1420Z" fill="#004955" stroke="#004955"></path><path d="M781.2 1420L789.2 1620L1137.5 1620Z" fill="#061e2b" stroke="#061e2b"></path><path d="M2760.8 1078L2541.5 806L2412.5 1109Z" fill="#07a339" stroke="#07a339"></path><path d="M2541.5 806L2775.8 609L2406.5 490Z" fill="#00101c" stroke="#00101c"></path><path d="M2516.5 332L2693.8 204L2471.5 0Z" fill="#052c3a" stroke="#052c3a"></path><path d="M895.2 0L543.8 0L814.2 261Z" fill="#052c3a" stroke="#052c3a"></path><path d="M537.8 332L295.4 319L487.8 580Z" fill="#00101c" stroke="#00101c"></path><path d="M2735.8 760L2775.8 609L2541.5 806Z" fill="#004955" stroke="#004955"></path><path d="M2775.8 609L2693.8 204L2516.5 332Z" fill="#00101c" stroke="#00101c"></path><path d="M477.8 1071L476.8 1362L781.2 1420Z" fill="#023a48" stroke="#023a48"></path><path d="M2232.1 1620L2415.5 1620L2276.1 1407Z" fill="#00101c" stroke="#00101c"></path><path d="M2513.5 1351L2760.8 1078L2412.5 1109Z" fill="#061e2b" stroke="#061e2b"></path><path d="M2799.8 1407L2760.8 1078L2513.5 1351Z" fill="#00101c" stroke="#00101c"></path><path d="M2735.8 760L2999.2 855L2775.8 609Z" fill="#052c3a" stroke="#052c3a"></path><path d="M247.4 873L308.4 1017L603.8 835Z" fill="#052c3a" stroke="#052c3a"></path><path d="M477.8 1071L326.4 1313L476.8 1362Z" fill="#005961" stroke="#005961"></path><path d="M247.4 873L603.8 835L487.8 580Z" fill="#005961" stroke="#005961"></path><path d="M543.8 0L295.4 319L537.8 332Z" fill="#07a339" stroke="#07a339"></path><path d="M238.4 467L247.4 873L487.8 580Z" fill="#07a339" stroke="#07a339"></path><path d="M476.8 1362L585.8 1620L781.2 1420Z" fill="#00696a" stroke="#00696a"></path><path d="M300.4 1620L585.8 1620L476.8 1362Z" fill="#00696a" stroke="#00696a"></path><path d="M295.4 319L238.4 467L487.8 580Z" fill="#07a339" stroke="#07a339"></path><path d="M0 1297L326.4 1313L308.4 1017Z" fill="#023a48" stroke="#023a48"></path><path d="M308.4 1017L326.4 1313L477.8 1071Z" fill="#00796a" stroke="#00796a"></path><path d="M3018.2 197L2755.8 0L2693.8 204Z" fill="#00101c" stroke="#00101c"></path><path d="M2693.8 204L2755.8 0L2471.5 0Z" fill="#00796a" stroke="#00796a"></path><path d="M2766.8 1620L2799.8 1407L2513.5 1351Z" fill="#061e2b" stroke="#061e2b"></path><path d="M2760.8 1078L2999.2 855L2735.8 760Z" fill="#061e2b" stroke="#061e2b"></path><path d="M3010.2 1141L2999.2 855L2760.8 1078Z" fill="#004955" stroke="#004955"></path><path d="M2775.8 609L3018.2 197L2693.8 204Z" fill="#023a48" stroke="#023a48"></path><path d="M543.8 0L217.4 0L295.4 319Z" fill="#00101c" stroke="#00101c"></path><path d="M0 331L0 519L238.4 467Z" fill="#07a339" stroke="#07a339"></path><path d="M0 519L0 836L247.4 873Z" fill="#00796a" stroke="#00796a"></path><path d="M2415.5 1620L2766.8 1620L2513.5 1351Z" fill="#052c3a" stroke="#052c3a"></path><path d="M2799.8 1407L3010.2 1141L2760.8 1078Z" fill="#008862" stroke="#008862"></path><path d="M3052.2 1385L3010.2 1141L2799.8 1407Z" fill="#052c3a" stroke="#052c3a"></path><path d="M326.4 1313L300.4 1620L476.8 1362Z" fill="#07a339" stroke="#07a339"></path><path d="M0 1297L300.4 1620L326.4 1313Z" fill="#023a48" stroke="#023a48"></path><path d="M0 519L247.4 873L238.4 467Z" fill="#00796a" stroke="#00796a"></path><path d="M247.4 873L0 1026L308.4 1017Z" fill="#009652" stroke="#009652"></path><path d="M3101.2 496L2775.8 609L2999.2 855Z" fill="#07a339" stroke="#07a339"></path><path d="M3101.2 496L3018.2 197L2775.8 609Z" fill="#052c3a" stroke="#052c3a"></path><path d="M0 331L238.4 467L295.4 319Z" fill="#004955" stroke="#004955"></path><path d="M3257.6 296L3101.2 496L3373.6 470Z" fill="#00796a" stroke="#00796a"></path><path d="M0 836L0 1026L247.4 873Z" fill="#00796a" stroke="#00796a"></path><path d="M217.4 0L0 331L295.4 319Z" fill="#023a48" stroke="#023a48"></path><path d="M3002.2 1620L3052.2 1385L2799.8 1407Z" fill="#005961" stroke="#005961"></path><path d="M3343.6 815L3101.2 496L2999.2 855Z" fill="#07a339" stroke="#07a339"></path><path d="M0 1026L0 1297L308.4 1017Z" fill="#00796a" stroke="#00796a"></path><path d="M3257.6 296L3053.2 0L3018.2 197Z" fill="#07a339" stroke="#07a339"></path><path d="M3018.2 197L3053.2 0L2755.8 0Z" fill="#00796a" stroke="#00796a"></path><path d="M217.4 0L0 0L0 331Z" fill="#00796a" stroke="#00796a"></path><path d="M2766.8 1620L3002.2 1620L2799.8 1407Z" fill="#009652" stroke="#009652"></path><path d="M3300.6 1065L2999.2 855L3010.2 1141Z" fill="#00696a" stroke="#00696a"></path><path d="M3101.2 496L3257.6 296L3018.2 197Z" fill="#00796a" stroke="#00796a"></path><path d="M3294.6 1353L3010.2 1141L3052.2 1385Z" fill="#061e2b" stroke="#061e2b"></path><path d="M3294.6 1353L3300.6 1065L3010.2 1141Z" fill="#00696a" stroke="#00696a"></path><path d="M0 1297L0 1620L300.4 1620Z" fill="#052c3a" stroke="#052c3a"></path><path d="M3300.6 1065L3343.6 815L2999.2 855Z" fill="#061e2b" stroke="#061e2b"></path><path d="M3343.6 815L3373.6 470L3101.2 496Z" fill="#07a339" stroke="#07a339"></path><path d="M3580 1046L3580 849L3343.6 815Z" fill="#07a339" stroke="#07a339"></path><path d="M3274.6 1620L3294.6 1353L3052.2 1385Z" fill="#009652" stroke="#009652"></path><path d="M3580 297L3344.6 0L3257.6 296Z" fill="#00101c" stroke="#00101c"></path><path d="M3257.6 296L3344.6 0L3053.2 0Z" fill="#008862" stroke="#008862"></path><path d="M3002.2 1620L3274.6 1620L3052.2 1385Z" fill="#07a339" stroke="#07a339"></path><path d="M3580 1046L3343.6 815L3300.6 1065Z" fill="#00796a" stroke="#00796a"></path><path d="M3343.6 815L3580 515L3373.6 470Z" fill="#009652" stroke="#009652"></path><path d="M3580 1046L3300.6 1065L3580 1368Z" fill="#008862" stroke="#008862"></path><path d="M3373.6 470L3580 297L3257.6 296Z" fill="#052c3a" stroke="#052c3a"></path><path d="M3580 849L3580 515L3343.6 815Z" fill="#00796a" stroke="#00796a"></path><path d="M3580 1368L3300.6 1065L3294.6 1353Z" fill="#009652" stroke="#009652"></path><path d="M3580 515L3580 297L3373.6 470Z" fill="#005961" stroke="#005961"></path><path d="M3580 1620L3580 1368L3294.6 1353Z" fill="#052c3a" stroke="#052c3a"></path><path d="M3580 297L3580 0L3344.6 0Z" fill="#07a339" stroke="#07a339"></path><path d="M3274.6 1620L3580 1620L3294.6 1353Z" fill="#005961" stroke="#005961"></path></g></svg>